<svg xmlns="http://www.w3.org/2000/svg" viewBox="0 0 112 135"><defs><style>.cls-1{fill:#edd2d2;}.cls-2{font-size:22px;fill:#314150;font-family:Ubuntu-Bold, Ubuntu;font-weight:700;}.cls-3{letter-spacing:-0.01em;}.cls-4{letter-spacing:-0.02em;}.cls-5{fill:#fff;}.cls-6{opacity:0.86;}.cls-7{fill:#77b2c6;}.cls-8{fill:#9db6c1;}</style></defs><g id="Suscrip"><rect class="cls-1" x="-704.69" y="-324.08" width="1453" height="1725"/><text class="cls-2" transform="translate(6.92 153.2)"><tspan class="cls-3">C</tspan><tspan x="13.99" y="0">onfian</tspan><tspan class="cls-4" x="81" y="0">z</tspan><tspan x="91.67" y="0">a</tspan></text><path class="cls-5" d="M60,14V.32a1.5,1.5,0,0,0-3,0V14a1.5,1.5,0,0,0,3,0Z"/><path class="cls-5" d="M46.94,13.09A81,81,0,0,0,42.33,1.45,1.5,1.5,0,1,0,39.74,3,75.38,75.38,0,0,1,44,13.89a1.5,1.5,0,1,0,2.9-.8Z"/><path class="cls-5" d="M71.25,13.87c.43-.75.89-1.49,1.39-2.21.26-.37.52-.73.79-1.09l.07-.09.17-.22.45-.55A32.3,32.3,0,0,1,77.86,6a1.51,1.51,0,0,0,0-2.12,1.54,1.54,0,0,0-2.12,0,32.06,32.06,0,0,0-7.08,8.52,1.51,1.51,0,0,0,.53,2.05,1.53,1.53,0,0,0,2.06-.54Z"/><g class="cls-6"><path class="cls-7" d="M56.74,42.33a12.41,12.41,0,0,0-11.25,2.35c-1,.81-1.85,2.12-1.27,3.23a3.24,3.24,0,0,0,1.9,1.25l9.39,3.26"/><path class="cls-8" d="M59.53,32.21a25.66,25.66,0,0,0-5.29-.82,24.71,24.71,0,0,0-5.43.47,12.85,12.85,0,0,0-2.66.69,25.19,25.19,0,0,0-4.86,2.25c-1,.69-2,1.49-3,2.27a7.16,7.16,0,0,0-1,1,20.21,20.21,0,0,0-1.91,2.53,16.53,16.53,0,0,0-1.27,2.93,9.06,9.06,0,0,0-.33,1.92,9.12,9.12,0,0,0-.19,1.92,9.24,9.24,0,0,0,1,4.38,8.77,8.77,0,0,0,.8,1.72,20.38,20.38,0,0,0,1.77,2.25,11.66,11.66,0,0,0,1.19.94,11.2,11.2,0,0,0,1.59,1.16,40,40,0,0,0,5.19,2l7.63,2.65a8,8,0,0,0,4.19.19,7.82,7.82,0,0,0,3.9-1.25,7.91,7.91,0,0,0,2.95-2.7,8,8,0,0,0,1.88-3.57,10.65,10.65,0,0,0-1.06-8.1L62.94,45a10.55,10.55,0,0,0-4.63-2.7l-5.17-1.8c-1.63-.56-3.31-1.06-4.91-1.73l2.51,1.06a4.2,4.2,0,0,1-.77-.45L52.09,41a1.88,1.88,0,0,1-.24-.25l1.64,2.13a2.18,2.18,0,0,1-.28-.46L54.27,45a2.14,2.14,0,0,1-.09-.34l.38,2.79a2.35,2.35,0,0,1,0-.53l-.38,2.8a3.21,3.21,0,0,1,.15-.53l-1.06,2.51a4.59,4.59,0,0,1,.48-.83L52.11,53a6.74,6.74,0,0,1,1.11-1.09L51.09,53.5a12.81,12.81,0,0,1,2.7-1.58L51.28,53a13.22,13.22,0,0,1,3.2-.88l-2.79.37a13.25,13.25,0,0,1,3.33,0l-2.8-.38a12.67,12.67,0,0,1,1.73.37,7.93,7.93,0,0,0,4.18.19,9.38,9.38,0,0,0,6.85-4,7.8,7.8,0,0,0,1.88-3.57,10.63,10.63,0,0,0-1-8.09,11.1,11.1,0,0,0-6.28-4.82Z"/></g><g class="cls-6"><path class="cls-7" d="M64.27,84.31c1.64-1.57,3.82-3.27,5.94-2.45s2.58,3.57,2.71,5.84a6.6,6.6,0,0,1-3.11.42,1.69,1.69,0,0,0,1.59.32"/><path class="cls-8" d="M71.7,91.73c.45-.43.91-.84,1.4-1.23L71,92.15a8.25,8.25,0,0,1,1.82-1.1l-2.51,1.06a5,5,0,0,1,1.15-.32l-2.79.38a4.07,4.07,0,0,1,.78,0l-2.79-.37a3.8,3.8,0,0,1,.88.23L65,91a3.21,3.21,0,0,1,.65.37L63.54,89.7a4.18,4.18,0,0,1,.66.67l-1.64-2.13a5,5,0,0,1,.58,1l-1.06-2.51a9.42,9.42,0,0,1,.59,2.35l-.37-2.79c.05.45.09.91.12,1.37l7.71-10.12A6.74,6.74,0,0,1,68.6,78l2.79-.37a7.59,7.59,0,0,1-1.58,0L67,78l-2.51,1.06L62.38,80.7a7.91,7.91,0,0,0-2.17,3.38,5.21,5.21,0,0,0-.71,2.65,5.28,5.28,0,0,0,0,2.79,5.26,5.26,0,0,0,.71,2.65,8,8,0,0,0,2.17,3.38c.69.53,1.49,1.25,2.23,1.72l.23.13.11.06,2.51,1.05.31.1a28.82,28.82,0,0,0,2.92.39L71,99c.52,0,1.24-.16,1.59-.21a12.16,12.16,0,0,0,1.65-.24,7.9,7.9,0,0,0,3.57-1.88,7.86,7.86,0,0,0,2.71-3,7.71,7.71,0,0,0,1.24-3.9,8,8,0,0,0-.18-4.19l-1.06-2.51a10.61,10.61,0,0,0-3.77-3.76l-2.51-1.06a10.57,10.57,0,0,0-5.58,0,2.27,2.27,0,0,1-.25.06L71.15,78a2.26,2.26,0,0,1-.52,0l2.79.37a2.72,2.72,0,0,1-.38-.11l2.51,1.06a2.21,2.21,0,0,1-.34-.18l2.13,1.64-.11-.08L69.81,98.62a13,13,0,0,0,3-.21,13,13,0,0,0,2.92-.58l2.51-1.06a7.91,7.91,0,0,0,3-2.7,5.29,5.29,0,0,0,1.35-2.32,7.83,7.83,0,0,0,.9-4c-.09-1.47-.31-2.94-.53-4.4a9.88,9.88,0,0,0-.4-1.69,15,15,0,0,0-1.74-3.88A14.5,14.5,0,0,0,76,73.06a13.79,13.79,0,0,0-6.74-1.91,15.92,15.92,0,0,0-3.7.43,4.6,4.6,0,0,0-.89.28,16.89,16.89,0,0,0-4.22,2.07,36.75,36.75,0,0,0-3.64,3,7.76,7.76,0,0,0-2.17,3.37,9.47,9.47,0,0,0,0,8.1,7.76,7.76,0,0,0,2.17,3.37L59,93.38a10.51,10.51,0,0,0,5.3,1.43l2.79-.37a10.45,10.45,0,0,0,4.64-2.71Z"/></g><g class="cls-6"><path class="cls-8" d="M75.28,100.27a10.84,10.84,0,0,0,7.42-3.08,10.49,10.49,0,0,0-7.42-17.92,10.86,10.86,0,0,0-7.43,3.07,10.51,10.51,0,0,0,7.43,17.93Z"/></g><path class="cls-5" d="M60.29,94.25v-64a1.5,1.5,0,0,0-3,0v64a1.5,1.5,0,0,0,3,0Z"/><path class="cls-5" d="M69.77,47.1a17.39,17.39,0,0,0-11.86,9,1.55,1.55,0,0,0,.54,2.06,1.53,1.53,0,0,0,2.06-.54A14.4,14.4,0,0,1,70.57,50a1.5,1.5,0,0,0,1-1.84,1.52,1.52,0,0,0-1.84-1Z"/><path class="cls-5" d="M43.32,72.21a7.73,7.73,0,0,1,12.1,4c.55,1.84,3.44,1.06,2.89-.8A10.7,10.7,0,0,0,41.2,70.09a1.51,1.51,0,0,0,0,2.12,1.54,1.54,0,0,0,2.12,0Z"/><path class="cls-5" d="M61.37,32.11c4-2,8.23-4.1,12.77-4.28,3.48-.14,7.35.91,9.52,3.82,1.14,1.53,3.75,0,2.59-1.51a14,14,0,0,0-11.41-5.32c-5.34,0-10.3,2.4-15,4.7-1.73.86-.21,3.44,1.51,2.59Z"/><path class="cls-5" d="M81.36,27.82a9.41,9.41,0,0,1,10,6,9.39,9.39,0,0,1-4.07,10.74,1.5,1.5,0,0,0,1.52,2.59A12.4,12.4,0,0,0,94.3,33a12.36,12.36,0,0,0-12.94-8.22,1.56,1.56,0,0,0-1.5,1.5c0,.73.69,1.61,1.5,1.5Z"/><path class="cls-5" d="M91.79,42.85a14.31,14.31,0,0,1-1.46,24.48c-1.7.92-.18,3.51,1.51,2.59A17.3,17.3,0,0,0,93.3,40.26c-1.59-1.1-3.09,1.5-1.51,2.59Z"/><path class="cls-5" d="M97.18,64.75a19.51,19.51,0,0,1,3,6.59,5.81,5.81,0,0,1-1.35,5.08c-1.36,1.37.76,3.5,2.12,2.13a8.71,8.71,0,0,0,2.24-7.22c-.38-3-1.87-5.57-3.39-8.09-1-1.65-3.6-.14-2.59,1.51Z"/><path class="cls-5" d="M58,95.83c4.4,5.83,11.71,9.39,19.07,8.08,6.72-1.2,12.34-7.92,10-14.88-.61-1.82-3.51-1-2.9.8,1.89,5.64-3,10.51-8.3,11.25-5.81.81-11.82-2.17-15.29-6.77-1.15-1.52-3.75,0-2.59,1.52Z"/><path class="cls-5" d="M88.36,96.33a18.53,18.53,0,0,0,13.41-18.2c-.08-1.92-3.08-1.93-3,0a15.5,15.5,0,0,1-11.2,15.31,1.5,1.5,0,0,0,.79,2.89Z"/><path class="cls-5" d="M70,78.17a5.83,5.83,0,0,1,.59,0l.32,0c-.14,0-.17,0,0,0,.38.07.76.14,1.13.24s.75.23,1.11.37l.24.09c-.19-.08-.06,0,.06,0l.52.26c.33.18.64.36,1,.57.16.1.32.22.48.33.33.24-.12-.11,0,0l.2.17a10.72,10.72,0,0,1,.85.8l.39.44.16.2c-.21-.25.06.07.08.1a1.53,1.53,0,0,0,2.05.54,1.51,1.51,0,0,0,.54-2A12.55,12.55,0,0,0,70,75.17a1.52,1.52,0,0,0-1.5,1.5,1.54,1.54,0,0,0,1.5,1.5Z"/><path class="cls-5" d="M73.91,78.58A12.83,12.83,0,0,0,69.84,88.7a1.5,1.5,0,1,0,3,0,9.74,9.74,0,0,1,0-1.21c0-.19,0-.37,0-.56s0-.24,0-.36c0,.16,0,.1,0,0a13.08,13.08,0,0,1,.65-2.32c0-.1.08-.19,0,0l.12-.26c.08-.17.16-.34.25-.51.19-.35.4-.7.62-1s.25-.36.38-.52c-.1.12,0,0,0,0l.18-.22a11.15,11.15,0,0,1,.9-.92,1.52,1.52,0,0,0,0-2.12,1.55,1.55,0,0,0-2.13,0Z"/><path class="cls-5" d="M72.71,41.5a9.61,9.61,0,0,1,3.87,11.73,1.53,1.53,0,0,0,.53,2.05,1.52,1.52,0,0,0,2.06-.53,12.67,12.67,0,0,0-5-15.85,1.5,1.5,0,0,0-1.51,2.6Z"/><path class="cls-5" d="M96.8,61.8a7.73,7.73,0,0,1-1.08-.26c-.18-.06-.36-.16-.54-.2l.19.08-.16-.07L95,61.23a7.1,7.1,0,0,1-.91-.55,1.59,1.59,0,0,0-.21-.15l.09.07-.07-.06c-.15-.12-.29-.25-.43-.38l-.38-.38a2.69,2.69,0,0,0-.37-.44l.12.16-.1-.14c0-.07-.11-.14-.16-.22l-.28-.45c-.09-.15-.17-.31-.25-.47L91.91,58c-.13-.28.11.3,0,0a8.67,8.67,0,0,1-.33-1.1,1.52,1.52,0,0,0-1.85-1,1.54,1.54,0,0,0-1,1.84,9.26,9.26,0,0,0,7.3,7,1.61,1.61,0,0,0,1.16-.15,1.5,1.5,0,0,0-.36-2.74Z"/><path class="cls-5" d="M96.21,91.16A14.21,14.21,0,0,0,88.77,79a1.55,1.55,0,0,0-2.06.54,1.52,1.52,0,0,0,.54,2,11.14,11.14,0,0,1,6,9.57,1.5,1.5,0,0,0,3,0Z"/><path class="cls-5" d="M56.59,95.9c-3.62,2.64-7.38,5.44-11.78,6.6-3.71,1-8,.59-10.93-2.14-1.41-1.32-3.53.8-2.12,2.12,3.42,3.23,8.26,4,12.77,3.15,5.1-1,9.47-4.14,13.58-7.14,1.54-1.12,0-3.73-1.52-2.59Z"/><path class="cls-5" d="M36.68,101.39A9.27,9.27,0,0,1,30.55,84.2,1.5,1.5,0,0,0,29,81.61a12.25,12.25,0,0,0,7.64,22.78,1.54,1.54,0,0,0,1.5-1.5,1.51,1.51,0,0,0-1.5-1.5Z"/><path class="cls-5" d="M26,86a14.66,14.66,0,0,1,1.5-25.09c1.69-.92.18-3.52-1.52-2.59A17.66,17.66,0,0,0,24.49,88.6C26.08,89.71,27.58,87.11,26,86Z"/><path class="cls-5" d="M20.48,63.6c-1.27-2.11-2.63-4.28-3-6.74a6,6,0,0,1,1.38-5.24A1.5,1.5,0,0,0,16.7,49.5a8.78,8.78,0,0,0-2.27,7.35c.38,3,1.9,5.69,3.46,8.26a1.5,1.5,0,0,0,2.59-1.51Z"/><path class="cls-5" d="M60.57,31.81c-4.49-5.95-11.94-9.58-19.45-8.25-6.85,1.21-12.61,8.07-10.23,15.18.61,1.82,3.51,1,2.9-.8-1.94-5.78,3.06-10.8,8.52-11.55,6-.81,12.11,2.22,15.67,6.94,1.15,1.52,3.76,0,2.59-1.52Z"/><path class="cls-5" d="M29.53,31.31A18.92,18.92,0,0,0,15.85,49.9c.08,1.92,3.08,1.93,3,0A15.89,15.89,0,0,1,30.33,34.2a1.5,1.5,0,0,0-.8-2.89Z"/><path class="cls-5" d="M48.29,49.89a5.68,5.68,0,0,1-.59,0l-.33,0h0c-.39-.07-.78-.15-1.16-.25a10.84,10.84,0,0,1-1.14-.37l-.24-.1c.2.08,0,0-.07,0l-.53-.26a10.36,10.36,0,0,1-1-.58l-.49-.34c-.34-.25.12.11-.06,0l-.21-.17a9.49,9.49,0,0,1-.86-.82c-.14-.14-.27-.29-.4-.44l-.17-.21L41,46.09a1.5,1.5,0,0,0-2.59,1.51,12.81,12.81,0,0,0,9.9,5.29,1.5,1.5,0,0,0,1.5-1.5,1.54,1.54,0,0,0-1.5-1.5Z"/><path class="cls-5" d="M44.28,49.41a13.1,13.1,0,0,0,4.16-10.32,1.5,1.5,0,0,0-3,0,10.1,10.1,0,0,1,0,1.23c0,.19,0,.39,0,.58s0,.24,0,.36c0-.16,0-.08,0,0a12.91,12.91,0,0,1-.66,2.38c0,.09-.08.19,0,0l-.12.26c-.08.18-.17.35-.26.52a10.2,10.2,0,0,1-.63,1.06l-.38.54c.09-.13,0,0,0,0l-.19.23c-.28.32-.59.63-.91.93a1.51,1.51,0,0,0,0,2.12,1.53,1.53,0,0,0,2.12,0Z"/><path class="cls-5" d="M45.69,83.77a9.17,9.17,0,0,1,.19-3.24,9.82,9.82,0,0,1,1.46-3.29,9.54,9.54,0,0,1,5.49-4c1.87-.48,1.08-3.37-.8-2.89a12.9,12.9,0,0,0-9.24,14.18,1.52,1.52,0,0,0,1.85,1.05,1.54,1.54,0,0,0,1-1.85Z"/><path class="cls-5" d="M20.9,66.57a6.91,6.91,0,0,1,1.11.27c.17,0,.37.16.55.2L22.37,67l.16.07.25.12a8.91,8.91,0,0,1,.93.57,1.77,1.77,0,0,0,.22.16c-.18-.15-.21-.17-.09-.07l.07.06a5.46,5.46,0,0,1,.45.39,4.68,4.68,0,0,1,.38.39,2.74,2.74,0,0,0,.38.44L25,68.93l.11.15.16.22c.1.15.19.31.28.47a3.67,3.67,0,0,1,.26.48l.12.24c.13.28-.11-.29,0,0a7.35,7.35,0,0,1,.34,1.13,1.5,1.5,0,0,0,1.84,1.05,1.54,1.54,0,0,0,1.05-1.85,9.43,9.43,0,0,0-7.44-7.12,1.59,1.59,0,0,0-1.15.15,1.49,1.49,0,0,0-.69.9,1.51,1.51,0,0,0,1,1.84Z"/><path class="cls-5" d="M21.53,36.57A14.51,14.51,0,0,0,29.13,49a1.54,1.54,0,0,0,2.05-.54,1.51,1.51,0,0,0-.54-2,11.46,11.46,0,0,1-6.11-9.82,1.5,1.5,0,0,0-3,0Z"/></g></svg>