<?xml version="1.0" encoding="utf-8"?>
<!-- Generator: Adobe Illustrator 24.2.3, SVG Export Plug-In . SVG Version: 6.00 Build 0)  -->
<svg version="1.1" id="Capa_1" xmlns="http://www.w3.org/2000/svg" xmlns:xlink="http://www.w3.org/1999/xlink" x="0px" y="0px"
	 viewBox="0 0 112 135" style="enable-background:new 0 0 112 135;" xml:space="preserve">
<style type="text/css">
	.st0{display:none;}
	.st1{display:inline;fill:#EDD2D2;}
	.st2{display:inline;fill:#314150;}
	.st3{font-family:'Ubuntu-Bold';}
	.st4{font-size:22px;}
	.st5{display:inline;fill:#FFFFFF;}
	.st6{display:inline;opacity:0.86;}
	.st7{fill:#77B2C6;}
	.st8{fill:#9DB6C1;}
	.st9{fill:#EDD2D2;}
	.st10{fill:#FFFFFF;}
	.st11{opacity:0.7;}
	.st12{fill:#F4502A;stroke:#F4502A;stroke-width:2;stroke-miterlimit:10;}
</style>
<g id="Suscrip" class="st0">
	<rect x="-704.69" y="-324.08" class="st1" width="1453" height="1725"/>
	<text transform="matrix(1 0 0 1 6.92 153.2)" class="st2 st3 st4">C</text>
	<text transform="matrix(1 0 0 1 20.91 153.2)" class="st2 st3 st4">onfian</text>
	<text transform="matrix(1 0 0 1 87.92 153.2)" class="st2 st3 st4">z</text>
	<text transform="matrix(1 0 0 1 98.59 153.2)" class="st2 st3 st4">a</text>
	<path class="st5" d="M60,14V0.32c0-0.83-0.67-1.5-1.5-1.5S57-0.51,57,0.32V14c0,0.83,0.67,1.5,1.5,1.5S60,14.83,60,14z"/>
	<path class="st5" d="M46.94,13.09c-1.23-3.99-2.78-7.88-4.61-11.64c-0.43-0.72-1.35-0.95-2.07-0.52S39.31,2.28,39.74,3
		c1.7,3.51,3.12,7.16,4.26,10.89c0.22,0.8,1.05,1.27,1.85,1.05c0.8-0.22,1.27-1.05,1.05-1.85H46.94z"/>
	<path class="st5" d="M71.25,13.87c0.43-0.75,0.89-1.49,1.39-2.21c0.26-0.37,0.52-0.73,0.79-1.09l0.07-0.09l0.17-0.22l0.45-0.55
		c1.14-1.34,2.39-2.58,3.74-3.71c0.58-0.59,0.58-1.53,0-2.12c-0.59-0.56-1.53-0.56-2.12,0c-2.84,2.41-5.23,5.29-7.08,8.52
		c-0.41,0.71-0.18,1.63,0.53,2.05c0.72,0.41,1.63,0.17,2.06-0.54L71.25,13.87z"/>
	<g class="st6">
		<path class="st7" d="M56.74,42.33c-3.91-1.1-8.11-0.23-11.25,2.35c-1,0.81-1.85,2.12-1.27,3.23c0.46,0.63,1.14,1.08,1.9,1.25
			l9.39,3.26"/>
		<path class="st8" d="M59.53,32.21c-1.73-0.46-3.5-0.73-5.29-0.82c-1.82-0.04-3.64,0.11-5.43,0.47c-0.91,0.13-1.8,0.37-2.66,0.69
			c-1.7,0.58-3.32,1.33-4.86,2.25c-1,0.69-2,1.49-3,2.27c-0.37,0.3-0.7,0.63-1,1c-0.7,0.79-1.34,1.64-1.91,2.53
			c-0.52,0.93-0.94,1.91-1.27,2.93c-0.18,0.63-0.29,1.27-0.33,1.92c-0.13,0.63-0.19,1.28-0.19,1.92c-0.03,1.52,0.31,3.02,1,4.38
			c0.2,0.6,0.47,1.18,0.8,1.72c0.54,0.79,1.13,1.54,1.77,2.25c0.38,0.34,0.77,0.65,1.19,0.94c0.49,0.43,1.03,0.82,1.59,1.16
			c1.68,0.79,3.42,1.45,5.19,2l7.63,2.65c1.35,0.43,2.8,0.5,4.19,0.19c1.39-0.06,2.73-0.49,3.9-1.25c1.2-0.63,2.21-1.56,2.95-2.7
			c0.92-1.01,1.57-2.24,1.88-3.57c0.74-2.73,0.36-5.65-1.06-8.1L62.94,45c-1.29-1.28-2.88-2.21-4.63-2.7l-5.17-1.8
			c-1.63-0.56-3.31-1.06-4.91-1.73l2.51,1.06c-0.27-0.12-0.53-0.27-0.77-0.45L52.09,41c-0.09-0.08-0.17-0.16-0.24-0.25l1.64,2.13
			c-0.11-0.14-0.21-0.3-0.28-0.46L54.27,45c-0.04-0.11-0.07-0.22-0.09-0.34l0.38,2.79c-0.02-0.18-0.02-0.35,0-0.53l-0.38,2.8
			c0.03-0.18,0.08-0.36,0.15-0.53l-1.06,2.51c0.13-0.29,0.29-0.57,0.48-0.83L52.11,53c0.33-0.4,0.7-0.77,1.11-1.09l-2.13,1.59
			c0.83-0.63,1.74-1.17,2.7-1.58L51.28,53c1.03-0.43,2.1-0.72,3.2-0.88l-2.79,0.37c1.11-0.14,2.22-0.14,3.33,0l-2.8-0.38
			c0.58,0.08,1.16,0.21,1.73,0.37c1.35,0.44,2.79,0.5,4.18,0.19c2.76-0.25,5.27-1.72,6.85-4c0.93-1,1.58-2.24,1.88-3.57
			c0.75-2.72,0.4-5.63-1-8.09c-1.43-2.32-3.67-4.04-6.28-4.82L59.53,32.21z"/>
	</g>
	<g class="st6">
		<path class="st7" d="M64.27,84.31c1.64-1.57,3.82-3.27,5.94-2.45s2.58,3.57,2.71,5.84c-0.99,0.39-2.05,0.53-3.11,0.42
			c0.44,0.37,1.04,0.49,1.59,0.32"/>
		<path class="st8" d="M71.7,91.73c0.45-0.43,0.91-0.84,1.4-1.23L71,92.15c0.56-0.44,1.17-0.81,1.82-1.1l-2.51,1.06
			c0.37-0.15,0.76-0.26,1.15-0.32l-2.79,0.38c0.26-0.02,0.52-0.02,0.78,0l-2.79-0.37c0.3,0.04,0.6,0.12,0.88,0.23L65,91
			c0.23,0.1,0.45,0.22,0.65,0.37l-2.11-1.67c0.24,0.2,0.47,0.42,0.66,0.67l-1.64-2.13c0.23,0.31,0.43,0.65,0.58,1l-1.06-2.51
			c0.3,0.75,0.5,1.54,0.59,2.35l-0.37-2.79c0.05,0.45,0.09,0.91,0.12,1.37l7.71-10.12c-0.49,0.21-1,0.37-1.53,0.46l2.79-0.37
			c-0.53,0.05-1.05,0.05-1.58,0L67,78l-2.51,1.06l-2.11,1.64c-1,0.92-1.75,2.09-2.17,3.38c-0.47,0.8-0.71,1.72-0.71,2.65
			c-0.25,0.91-0.25,1.88,0,2.79c0,0.93,0.24,1.85,0.71,2.65c0.42,1.29,1.17,2.46,2.17,3.38c0.69,0.53,1.49,1.25,2.23,1.72l0.23,0.13
			l0.11,0.06l2.51,1.05l0.31,0.1c0.97,0.18,1.94,0.31,2.92,0.39L71,99c0.52,0,1.24-0.16,1.59-0.21c0.55-0.04,1.11-0.12,1.65-0.24
			c1.33-0.31,2.56-0.95,3.57-1.88c1.15-0.75,2.08-1.78,2.71-3c0.76-1.16,1.19-2.51,1.24-3.9c0.31-1.39,0.25-2.83-0.18-4.19
			l-1.06-2.51c-0.92-1.55-2.21-2.85-3.77-3.76l-2.51-1.06c-1.83-0.5-3.75-0.5-5.58,0c-0.08,0.02-0.17,0.04-0.25,0.06L71.15,78
			c-0.17,0.02-0.35,0.02-0.52,0l2.79,0.37c-0.13-0.03-0.26-0.06-0.38-0.11l2.51,1.06c-0.12-0.05-0.23-0.11-0.34-0.18l2.13,1.64
			l-0.11-0.08l-7.42,17.92c1,0.05,2.01-0.02,3-0.21c0.99-0.08,1.97-0.28,2.92-0.58l2.51-1.06c1.22-0.63,2.25-1.56,3-2.7
			c0.64-0.64,1.11-1.44,1.35-2.32c0.65-1.23,0.96-2.61,0.9-4c-0.09-1.47-0.31-2.94-0.53-4.4c-0.08-0.57-0.22-1.14-0.4-1.69
			c-0.39-1.37-0.98-2.68-1.74-3.88c-1.21-1.93-2.86-3.55-4.82-4.72c-2.04-1.21-4.37-1.86-6.74-1.91c-1.25,0-2.49,0.14-3.7,0.43
			c-0.31,0.06-0.6,0.16-0.89,0.28c-1.5,0.49-2.92,1.19-4.22,2.07c-1.28,0.92-2.49,1.92-3.64,3c-1.01,0.91-1.75,2.08-2.17,3.37
			c-1.21,2.56-1.21,5.54,0,8.1c0.42,1.29,1.16,2.46,2.17,3.37L59,93.38c1.61,0.94,3.44,1.43,5.3,1.43l2.79-0.37
			c1.76-0.48,3.36-1.42,4.64-2.71L71.7,91.73z"/>
	</g>
	<g class="st6">
		<path class="st8" d="M75.28,100.27c2.78-0.04,5.43-1.14,7.42-3.08c4.1-4.09,4.11-10.73,0.02-14.84c-1.97-1.98-4.65-3.09-7.44-3.08
			c-2.78,0.04-5.44,1.13-7.43,3.07c-4.1,4.11-4.09,10.77,0.02,14.86C69.84,99.16,72.5,100.27,75.28,100.27z"/>
	</g>
	<path class="st5" d="M60.29,94.25v-64c0-0.83-0.67-1.5-1.5-1.5s-1.5,0.67-1.5,1.5v64c0,0.83,0.67,1.5,1.5,1.5
		S60.29,95.08,60.29,94.25z"/>
	<path class="st5" d="M69.77,47.1c-5.1,1.07-9.46,4.37-11.86,9c-0.39,0.72-0.16,1.63,0.54,2.06c0.72,0.41,1.63,0.17,2.06-0.54
		c2-3.95,5.71-6.76,10.06-7.62c0.78-0.24,1.22-1.06,1-1.84c-0.25-0.77-1.06-1.21-1.84-1L69.77,47.1z"/>
	<path class="st5" d="M43.32,72.21c3.4-2.58,8.25-1.92,10.83,1.48c0.57,0.76,1,1.61,1.27,2.52c0.55,1.84,3.44,1.06,2.89-0.8
		c-1.62-5.68-7.53-8.98-13.22-7.37c-1.42,0.41-2.75,1.1-3.89,2.05c-0.58,0.59-0.58,1.53,0,2.12C41.79,72.77,42.73,72.77,43.32,72.21
		z"/>
	<path class="st5" d="M61.37,32.11c4-2,8.23-4.1,12.77-4.28c3.48-0.14,7.35,0.91,9.52,3.82c1.14,1.53,3.75,0,2.59-1.51
		c-2.75-3.48-6.98-5.45-11.41-5.32c-5.34,0-10.3,2.4-15,4.7c-1.73,0.86-0.21,3.44,1.51,2.59H61.37z"/>
	<path class="st5" d="M81.36,27.82c4.32-0.56,8.46,1.93,10,6c1.25,4.09-0.43,8.5-4.07,10.74c-0.72,0.42-0.95,1.34-0.54,2.05
		c0.42,0.72,1.34,0.95,2.06,0.54c4.84-2.92,7.1-8.73,5.49-14.15c-1.89-5.41-7.24-8.81-12.94-8.22c-0.82,0.03-1.47,0.68-1.5,1.5
		c0,0.73,0.69,1.61,1.5,1.5V27.82z"/>
	<path class="st5" d="M91.79,42.85c6.52,4.47,8.18,13.38,3.71,19.9c-1.32,1.93-3.1,3.5-5.17,4.58c-1.7,0.92-0.18,3.51,1.51,2.59
		c8.43-4.49,11.62-14.97,7.13-23.4c-1.34-2.52-3.29-4.67-5.67-6.26C91.71,39.16,90.21,41.76,91.79,42.85z"/>
	<path class="st5" d="M97.18,64.75c1.4,1.99,2.42,4.23,3,6.59c0.39,1.81-0.12,3.7-1.35,5.08c-1.36,1.37,0.76,3.5,2.12,2.13
		c1.81-1.94,2.63-4.6,2.24-7.22c-0.38-3-1.87-5.57-3.39-8.09c-1-1.65-3.6-0.14-2.59,1.51L97.18,64.75z"/>
	<path class="st5" d="M58,95.83c4.4,5.83,11.71,9.39,19.07,8.08c6.72-1.2,12.34-7.92,10-14.88c-0.61-1.82-3.51-1-2.9,0.8
		c1.89,5.64-3,10.51-8.3,11.25c-5.81,0.81-11.82-2.17-15.29-6.77c-1.15-1.52-3.75,0-2.59,1.52L58,95.83z"/>
	<path class="st5" d="M88.36,96.33c8.08-2.32,13.59-9.79,13.41-18.2c-0.08-1.92-3.08-1.93-3,0c0.19,7.06-4.42,13.35-11.2,15.31
		c-0.79,0.26-1.21,1.11-0.96,1.89C86.86,96.06,87.61,96.49,88.36,96.33z"/>
	<path class="st5" d="M70,78.17c0.2-0.01,0.39-0.01,0.59,0h0.32c-0.14,0-0.17,0,0,0c0.38,0.07,0.76,0.14,1.13,0.24
		s0.75,0.23,1.11,0.37l0.24,0.09c-0.19-0.08-0.06,0,0.06,0l0.52,0.26c0.33,0.18,0.64,0.36,1,0.57c0.16,0.1,0.32,0.22,0.48,0.33
		c0.33,0.24-0.12-0.11,0,0l0.2,0.17c0.3,0.25,0.58,0.52,0.85,0.8l0.39,0.44l0.16,0.2c-0.21-0.25,0.06,0.07,0.08,0.1
		c0.43,0.7,1.33,0.94,2.05,0.54c0.68-0.42,0.92-1.3,0.54-2c-2.28-3.11-5.87-4.99-9.72-5.11c-0.82,0.01-1.49,0.68-1.5,1.5
		C68.52,77.49,69.18,78.15,70,78.17z"/>
	<path class="st5" d="M73.91,78.58c-2.79,2.6-4.29,6.31-4.07,10.12c0,0.83,0.67,1.5,1.5,1.5s1.5-0.67,1.5-1.5
		c-0.03-0.4-0.03-0.81,0-1.21c0-0.19,0-0.37,0-0.56s0-0.24,0-0.36c0,0.16,0,0.1,0,0c0.14-0.79,0.36-1.57,0.65-2.32
		c0-0.1,0.08-0.19,0,0l0.12-0.26c0.08-0.17,0.16-0.34,0.25-0.51c0.19-0.35,0.4-0.7,0.62-1s0.25-0.36,0.38-0.52c-0.1,0.12,0,0,0,0
		l0.18-0.22c0.28-0.32,0.58-0.63,0.9-0.92c0.57-0.59,0.57-1.53,0-2.12c-0.6-0.57-1.53-0.57-2.13,0L73.91,78.58z"/>
	<path class="st5" d="M72.71,41.5c3.96,2.45,5.6,7.4,3.87,11.73c-0.4,0.71-0.17,1.62,0.53,2.05c0.72,0.41,1.63,0.18,2.06-0.53
		c2.52-5.79,0.38-12.55-5-15.85c-0.72-0.42-1.64-0.17-2.06,0.54s-0.17,1.64,0.54,2.06H72.71z"/>
	<path class="st5" d="M96.8,61.8c-0.37-0.06-0.73-0.15-1.08-0.26c-0.18-0.06-0.36-0.16-0.54-0.2l0.19,0.08l-0.16-0.07L95,61.23
		c-0.32-0.16-0.62-0.34-0.91-0.55c-0.07-0.06-0.14-0.11-0.21-0.15l0.09,0.07l-0.07-0.06c-0.15-0.12-0.29-0.25-0.43-0.38l-0.38-0.38
		c-0.11-0.16-0.23-0.31-0.37-0.44l0.12,0.16l-0.1-0.14c0-0.07-0.11-0.14-0.16-0.22l-0.28-0.45c-0.09-0.15-0.17-0.31-0.25-0.47
		L91.91,58c-0.13-0.28,0.11,0.3,0,0c-0.13-0.36-0.24-0.73-0.33-1.1c-0.25-0.77-1.07-1.22-1.85-1c-0.76,0.26-1.2,1.06-1,1.84
		c0.83,3.57,3.69,6.32,7.3,7c0.39,0.1,0.81,0.04,1.16-0.15c0.71-0.42,0.95-1.34,0.54-2.05c-0.2-0.34-0.52-0.58-0.9-0.69L96.8,61.8z"
		/>
	<path class="st5" d="M96.21,91.16c-0.12-5.09-2.96-9.73-7.44-12.16c-0.72-0.39-1.63-0.16-2.06,0.54c-0.37,0.71-0.14,1.58,0.54,2
		c3.59,1.86,5.89,5.53,6,9.57c0,0.83,0.67,1.5,1.5,1.5s1.5-0.67,1.5-1.5L96.21,91.16z"/>
	<path class="st5" d="M56.59,95.9c-3.62,2.64-7.38,5.44-11.78,6.6c-3.71,1-8,0.59-10.93-2.14c-1.41-1.32-3.53,0.8-2.12,2.12
		c3.42,3.23,8.26,4,12.77,3.15c5.1-1,9.47-4.14,13.58-7.14C59.65,97.37,58.11,94.76,56.59,95.9z"/>
	<path class="st5" d="M36.68,101.39c-5.05,0.84-9.83-2.57-10.67-7.62c-0.64-3.83,1.17-7.65,4.54-9.57c0.72-0.43,0.95-1.35,0.52-2.07
		c-0.43-0.72-1.35-0.95-2.07-0.52c-5.87,3.36-7.9,10.85-4.54,16.72c2.46,4.3,7.27,6.69,12.18,6.06c0.82-0.02,1.48-0.68,1.5-1.5
		c-0.01-0.83-0.67-1.49-1.5-1.5H36.68z"/>
	<path class="st5" d="M26,86c-6.68-4.58-8.39-13.7-3.81-20.38c1.36-1.98,3.18-3.6,5.31-4.71c1.69-0.92,0.18-3.52-1.52-2.59
		c-8.61,4.59-11.87,15.28-7.28,23.89c1.37,2.58,3.36,4.77,5.79,6.39C26.08,89.71,27.58,87.11,26,86z"/>
	<path class="st5" d="M20.48,63.6c-1.27-2.11-2.63-4.28-3-6.74c-0.4-1.87,0.11-3.81,1.38-5.24c0.59-0.6,0.58-1.55-0.02-2.14
		c-0.6-0.59-1.55-0.58-2.14,0.02c-1.85,1.97-2.68,4.68-2.27,7.35c0.38,3,1.9,5.69,3.46,8.26c0.44,0.7,1.37,0.91,2.07,0.47
		C20.62,65.16,20.85,64.29,20.48,63.6z"/>
	<path class="st5" d="M60.57,31.81c-4.49-5.95-11.94-9.58-19.45-8.25c-6.85,1.21-12.61,8.07-10.23,15.18c0.61,1.82,3.51,1,2.9-0.8
		c-1.94-5.78,3.06-10.8,8.52-11.55c6-0.81,12.11,2.22,15.67,6.94C59.13,34.85,61.74,33.33,60.57,31.81z"/>
	<path class="st5" d="M29.53,31.31c-8.25,2.38-13.87,10.01-13.68,18.59c0.08,1.92,3.08,1.93,3,0c-0.2-7.24,4.52-13.69,11.48-15.7
		c0.79-0.24,1.23-1.08,0.99-1.88C31.09,31.57,30.3,31.12,29.53,31.31z"/>
	<path class="st5" d="M48.29,49.89c-0.2,0.01-0.39,0.01-0.59,0h-0.33l0,0c-0.39-0.07-0.78-0.15-1.16-0.25
		c-0.39-0.1-0.77-0.23-1.14-0.37l-0.24-0.1c0.2,0.08,0,0-0.07,0l-0.53-0.26c-0.34-0.17-0.68-0.37-1-0.58l-0.49-0.34
		c-0.34-0.25,0.12,0.11-0.06,0l-0.21-0.17c-0.3-0.26-0.59-0.53-0.86-0.82c-0.14-0.14-0.27-0.29-0.4-0.44l-0.17-0.21L41,46.09
		c-0.44-0.7-1.37-0.91-2.07-0.47c-0.66,0.42-0.89,1.28-0.52,1.98c2.31,3.19,5.96,5.14,9.9,5.29c0.83,0,1.5-0.67,1.5-1.5
		c-0.02-0.82-0.68-1.48-1.5-1.5H48.29z"/>
	<path class="st5" d="M44.28,49.41c2.85-2.65,4.38-6.43,4.16-10.32c0-0.83-0.67-1.5-1.5-1.5s-1.5,0.67-1.5,1.5
		c0.02,0.41,0.02,0.82,0,1.23c0,0.19,0,0.39,0,0.58s0,0.24,0,0.36c0-0.16,0-0.08,0,0c-0.14,0.81-0.36,1.61-0.66,2.38
		c0,0.09-0.08,0.19,0,0l-0.12,0.26c-0.08,0.18-0.17,0.35-0.26,0.52c-0.19,0.37-0.4,0.72-0.63,1.06l-0.38,0.54c0.09-0.13,0,0,0,0
		l-0.19,0.23c-0.28,0.32-0.59,0.63-0.91,0.93c-0.58,0.59-0.58,1.53,0,2.12c0.59,0.57,1.53,0.57,2.12,0L44.28,49.41z"/>
	<path class="st5" d="M45.69,83.77c-0.13-1.08-0.07-2.18,0.19-3.24c0.28-1.18,0.77-2.29,1.46-3.29c1.28-1.96,3.23-3.39,5.49-4
		c1.87-0.48,1.08-3.37-0.8-2.89c-6.18,1.76-10.12,7.81-9.24,14.18c0.23,0.8,1.05,1.26,1.85,1.05c0.77-0.26,1.21-1.07,1-1.85
		L45.69,83.77z"/>
	<path class="st5" d="M20.9,66.57c0.38,0.06,0.75,0.15,1.11,0.27c0.17,0,0.37,0.16,0.55,0.2L22.37,67l0.16,0.07l0.25,0.12
		c0.32,0.17,0.63,0.36,0.93,0.57c0.07,0.06,0.14,0.11,0.22,0.16c-0.18-0.15-0.21-0.17-0.09-0.07l0.07,0.06
		c0.16,0.12,0.31,0.25,0.45,0.39c0.13,0.12,0.26,0.25,0.38,0.39c0.11,0.16,0.24,0.31,0.38,0.44L25,68.93l0.11,0.15l0.16,0.22
		c0.1,0.15,0.19,0.31,0.28,0.47c0.1,0.15,0.19,0.31,0.26,0.48l0.12,0.24c0.13,0.28-0.11-0.29,0,0c0.14,0.37,0.26,0.74,0.34,1.13
		c0.22,0.8,1.04,1.27,1.84,1.05c0.79-0.24,1.25-1.05,1.05-1.85c-0.85-3.64-3.77-6.43-7.44-7.12c-0.39-0.1-0.8-0.04-1.15,0.15
		c-0.34,0.2-0.59,0.52-0.69,0.9c-0.22,0.78,0.23,1.59,1,1.84L20.9,66.57z"/>
	<path class="st5" d="M21.53,36.57c0.12,5.21,3.02,9.95,7.6,12.43c0.72,0.39,1.62,0.16,2.05-0.54c0.38-0.7,0.14-1.58-0.54-2
		c-3.66-1.93-6-5.68-6.11-9.82c0-0.83-0.67-1.5-1.5-1.5s-1.5,0.67-1.5,1.5L21.53,36.57z"/>
</g>
<rect x="-13.42" y="-11.47" class="st9" width="164.41" height="205.9"/>
<g>
	<path class="st10" d="M1.97,85.99c0.64-2.08,2.92-3.36,4.56-4.58c2.06-1.54,4.11-3.1,6.2-4.61c1.79-1.3,3.72-2.56,5.96-2.83
		c2.44-0.29,4.87,0.45,7.11,1.33c4.69,1.83,9.26,4.02,13.86,6.05c1.84,0.81,4.21,1.78,4.76,3.94c0.54,2.1-1.49,3.27-3.34,3.17
		c-1.33-0.07-2.6-0.62-3.79-1.15c-1.25-0.56-2.49-1.14-3.72-1.74c-2.56-1.24-5.07-2.57-7.55-3.97c-1.12-0.63-2.12,1.09-1,1.72
		c2.52,1.43,5.08,2.78,7.69,4.04c2.43,1.18,5.06,2.71,7.78,3.04c2.1,0.26,4.56-0.5,5.57-2.51c1.08-2.15,0.03-4.7-1.72-6.15
		c-2.06-1.71-4.81-2.59-7.23-3.66c-2.71-1.19-5.42-2.39-8.13-3.58c-2.54-1.11-5.13-2.2-7.92-2.5c-2.66-0.29-5.17,0.42-7.44,1.8
		c-2.75,1.67-5.26,3.78-7.83,5.7c-2.19,1.63-4.89,3.2-5.74,5.97C-0.33,86.69,1.59,87.22,1.97,85.99L1.97,85.99z"/>
</g>
<g>
	<path class="st10" d="M7.58,95.06c1.18-3.13,4.88-4.33,7.94-4.22c4.33,0.15,8.45,2.11,12.64,3.02c4.12,0.89,8.4,1.19,12.52,0.14
		c3.91-1,7.51-2.99,10.95-5.05c4.03-2.42,7.86-5.14,11.5-8.11c0.99-0.81-0.42-2.21-1.41-1.41c-3.31,2.71-6.8,5.18-10.44,7.41
		c-3.53,2.15-7.22,4.28-11.27,5.28c-4.3,1.07-8.77,0.5-13.01-0.58c-4.14-1.06-8.29-2.92-12.65-2.68c-3.68,0.2-7.35,2.1-8.7,5.68
		C5.21,95.73,7.14,96.25,7.58,95.06L7.58,95.06z"/>
</g>
<g>
	<path class="st10" d="M31.72,75.73c2.62-1,4.92-2.53,7.21-4.13c2.13-1.49,4.41-3.29,6.94-4.06c1.13-0.34,2.37-0.04,1.91,1.39
		c-0.38,1.19-1.78,1.88-2.76,2.51c-2.8,1.8-5.6,3.6-8.39,5.4c-1.07,0.69-0.08,2.41,1,1.72c2.53-1.62,5.05-3.25,7.58-4.87
		c1.93-1.24,4.5-2.54,4.64-5.14c0.06-1.08-0.42-2.16-1.35-2.73c-1.02-0.63-2.32-0.48-3.4-0.11c-2.35,0.82-4.47,2.31-6.5,3.71
		c-2.35,1.63-4.7,3.36-7.4,4.39C30.01,74.26,30.52,76.18,31.72,75.73L31.72,75.73z"/>
</g>
<g>
	<path class="st10" d="M48.37,71.32c1.14-0.79,2.34-1.49,3.6-2.08c0.64-0.3,1.29-0.57,1.96-0.8c0.55-0.2,1.26-0.51,1.86-0.43
		c1.02,0.14,1.71,1.33,2.18,2.13c0.27,0.45,0.49,0.74,0.04,1.12c-0.44,0.36-1.07,0.55-1.58,0.78c-5.18,2.34-10.14,5.16-14.81,8.4
		c-1.04,0.72-0.05,2.45,1,1.72c4.42-3.07,9.09-5.76,13.97-8.02c0.99-0.46,2.18-0.82,2.98-1.61c0.83-0.83,0.88-1.94,0.36-2.96
		c-0.89-1.77-2.46-3.73-4.65-3.53c-1.39,0.13-2.8,0.8-4.06,1.37c-1.36,0.62-2.64,1.36-3.87,2.21
		C46.33,70.33,47.32,72.05,48.37,71.32L48.37,71.32z"/>
</g>
<g>
	<path class="st10" d="M63.49,80.48c1.27-2.8-0.66-5.64-3.33-6.62c-1.38-0.5-2.91-0.55-4.36-0.44c-1.69,0.14-3.35,0.48-4.95,1.05
		c-1.2,0.42-0.68,2.35,0.53,1.92c2.27-0.8,4.97-1.39,7.37-0.87c0.98,0.21,1.95,0.63,2.56,1.46c0.51,0.68,0.84,1.67,0.47,2.49
		c-0.22,0.49-0.14,1.07,0.36,1.36C62.55,81.08,63.27,80.97,63.49,80.48L63.49,80.48z"/>
</g>
<g>
	<path class="st10" d="M110.12,53.13c-1.14,1.8-3.59,2.42-5.46,3.15c-2.43,0.95-4.85,1.93-7.29,2.85c-2.31,0.88-4.74,1.61-7.22,1.04
		c-2.16-0.5-4.07-1.71-5.83-3.02c-4.04-3-7.88-6.33-11.78-9.51c-1.56-1.27-3.58-2.82-3.55-5.05c0.03-2.15,2.28-2.76,4.04-2.18
		c1.18,0.38,2.21,1.17,3.16,1.95c1.13,0.92,2.25,1.87,3.35,2.84c2.14,1.87,4.21,3.82,6.23,5.82c0.91,0.9,2.32-0.5,1.41-1.41
		c-2.09-2.08-4.25-4.09-6.47-6.03c-1.98-1.73-4.05-3.81-6.5-4.84c-2.02-0.85-4.68-0.77-6.19,1.02c-1.56,1.85-1.14,4.57,0.19,6.41
		c1.59,2.22,4.09,3.82,6.19,5.53c2.32,1.88,4.63,3.77,6.96,5.64c1.97,1.59,4,3.14,6.35,4.11c2.54,1.06,5.18,1.13,7.83,0.39
		c3.19-0.89,6.27-2.32,9.35-3.53c2.5-0.98,5.43-1.78,6.95-4.18C112.53,53.05,110.81,52.05,110.12,53.13L110.12,53.13z"/>
</g>
<g>
	<path class="st10" d="M107.1,42.91c-2.01,2.77-6,2.88-8.96,1.91c-3.82-1.24-7.04-3.93-10.53-5.83c-3.45-1.88-7.16-3.33-11.1-3.71
		c-4.42-0.42-8.87,0.61-13.11,1.78c-4.67,1.28-9.22,2.94-13.64,4.91c-1.17,0.52-0.16,2.23,1,1.72c4.07-1.81,8.28-3.33,12.57-4.54
		c4.27-1.2,8.71-2.3,13.18-1.87c4.16,0.39,8.05,2.21,11.61,4.3c3.41,2,6.67,4.56,10.58,5.48c3.66,0.86,7.82,0.03,10.12-3.13
		C109.57,42.87,107.84,41.88,107.1,42.91L107.1,42.91z"/>
</g>
<g>
	<path class="st10" d="M78.72,55.18c-2.9,0.29-5.62,1.22-8.34,2.19c-1.28,0.45-2.55,0.91-3.86,1.28c-1.25,0.36-2.64,0.76-3.96,0.7
		c-1.19-0.05-1.85-0.93-1.02-2c0.79-1.01,2.38-1.28,3.54-1.64c3.07-0.96,6.14-1.93,9.21-2.89c1.22-0.38,0.7-2.3-0.53-1.92
		c-2.81,0.88-5.63,1.77-8.44,2.65c-2.22,0.7-5.12,1.25-5.97,3.75c-0.82,2.4,1.19,4.05,3.43,4.03c2.47-0.02,4.99-0.95,7.29-1.76
		c2.82-0.99,5.64-2.11,8.64-2.41C79.98,57.04,79.99,55.05,78.72,55.18L78.72,55.18z"/>
</g>
<g>
	<path class="st10" d="M61.45,54.92c-1.37,0.47-2.77,0.84-4.2,1.06c-0.68,0.11-1.36,0.18-2.05,0.22c-0.57,0.03-1.25,0.13-1.79-0.1
		c-0.92-0.39-1.25-1.67-1.49-2.53c-0.17-0.6-0.3-1,0.34-1.22c0.57-0.2,1.22-0.23,1.81-0.32c5.56-0.86,11.04-2.23,16.36-4.07
		c1.2-0.42,0.69-2.34-0.53-1.92c-5.07,1.76-10.29,3.09-15.59,3.95c-2.04,0.33-4.98,0.57-4.48,3.42c0.33,1.91,1.32,4.26,3.41,4.71
		c1.35,0.29,2.87,0.03,4.22-0.17c1.54-0.23,3.04-0.61,4.51-1.11C63.18,56.42,62.67,54.5,61.45,54.92L61.45,54.92z"/>
</g>
<g>
	<path class="st10" d="M49.37,42.03c-0.93,1.1-1.2,2.48-0.91,3.88c0.29,1.41,1.2,2.55,2.34,3.38c1.16,0.83,2.57,1.29,3.96,1.57
		c1.7,0.35,3.45,0.47,5.18,0.35c0.54-0.04,0.99-0.43,0.99-0.99c0-0.51-0.46-1.03-0.99-0.99c-2.46,0.17-5.3-0.02-7.49-1.25
		c-0.83-0.47-1.59-1.14-1.92-2.06c-0.28-0.8-0.33-1.8,0.25-2.48c0.35-0.41,0.4-1,0-1.41C50.42,41.68,49.72,41.62,49.37,42.03
		L49.37,42.03z"/>
</g>
<g class="st11">
	<g>
		<g>
			<path class="st12" d="M49.24,49.66c1.62-2.24,4.36-5.57,7.49-5.2c2.71,0.32,3.75,3.47,3.42,5.82c-0.46,3.27-3.1,5.86-5.28,8.12
				c-2.78,2.89-5.57,5.78-8.36,8.66c-1.37,1.42,0.79,3.59,2.17,2.17c3.44-3.57,7.04-7.04,10.32-10.76
				c2.58-2.94,4.73-6.46,4.15-10.52c-0.5-3.49-3.07-6.52-6.77-6.58c-4.22-0.07-7.53,3.6-9.79,6.74
				C45.44,49.72,48.1,51.25,49.24,49.66L49.24,49.66z"/>
		</g>
		<g>
			<path class="st12" d="M49.34,49.43c-1.6-2.67-3.69-5.22-6.61-6.49c-2.57-1.11-5.71-1-8.05,0.63c-2.63,1.83-3.38,5.1-2.27,8.04
				c1.27,3.36,4.2,5.35,6.7,7.73c2.91,2.77,5.17,6.08,6.81,9.74c0.8,1.8,3.44,0.24,2.65-1.55c-1.48-3.33-3.52-6.4-6-9.07
				c-2.37-2.54-6.17-4.6-7.33-8.04c-1.06-3.12,1.37-5.34,4.42-5.16c3.22,0.2,5.52,3.17,7.04,5.71
				C47.71,52.67,50.36,51.13,49.34,49.43L49.34,49.43z"/>
		</g>
	</g>
	<g>
		<path class="st12" d="M44.55,53.26c-2.25-0.62-4.27-1.51-6.25-2.76c-0.45-0.28-1.08-0.09-1.34,0.35c-0.28,0.47-0.1,1.06,0.35,1.34
			c2.08,1.31,4.35,2.31,6.72,2.95c0.5,0.14,1.09-0.17,1.21-0.69C45.36,53.96,45.09,53.41,44.55,53.26L44.55,53.26z"/>
	</g>
	<g>
		<path class="st12" d="M48.66,47.96c-1.12,0.09-2.23,0.17-3.35,0.15c-0.51-0.01-1.01-0.04-1.52-0.09c0.52,0.05-0.39-0.07-0.42-0.08
			c-0.22-0.04-0.44-0.1-0.66-0.16c-0.2-0.05-0.4-0.11-0.59-0.18c-0.08-0.03-0.7-0.3-0.34-0.12c0.36,0.17-0.25-0.14-0.32-0.17
			c-0.22-0.12-0.42-0.25-0.63-0.38c-0.46-0.28,0.14,0.17-0.09-0.06c-0.14-0.14-0.3-0.27-0.45-0.41c-0.11-0.11-0.48-0.67-0.16-0.15
			c-0.13-0.21-0.26-0.41-0.38-0.62c-0.59,1.44-1.17,2.89-1.76,4.33c-0.79,0.14,0.16,0,0.35,0.01c0.15,0,0.3,0.01,0.45,0.03
			c-0.11-0.01-0.22-0.03-0.33-0.04c0.22-0.06,0.67,0.17,0.88,0.23c0.55,0.15-0.42-0.24,0.24,0.12c0.24,0.13,0.46,0.27,0.68,0.42
			c-0.58-0.41,0.06,0.09,0.18,0.21c0.51,0.53-0.1-0.29,0.19,0.2c0.16,0.26,0.31,0.52,0.44,0.8c0.35-1.34,0.71-2.69,1.06-4.03
			c-0.29,0.17-0.26,0.18,0.08,0.03c-0.33,0.08-0.3,0.09,0.09,0.02c-0.29-0.01-0.32,0-0.09,0.03c0.23,0.04,0.2,0.04-0.09-0.02
			c-0.16-0.04-0.32-0.08-0.48-0.14c-0.28-0.1-0.31-0.12-0.11-0.04c0.2,0.08,0.17,0.06-0.09-0.07c-0.15-0.08-0.3-0.17-0.45-0.26
			c-1.19-0.72-2.31-1.48-3.68-1.84c-1.15-0.3-2.38,0.12-3.1,1.06c-0.67,0.87-0.91,2.32-0.23,3.28c3.61,5.09,7.22,10.18,10.83,15.26
			c1.02,1.44,3.28,2.13,4.63,0.6c2.87-3.25,5.58-6.63,8.15-10.12c1.23-1.68,2.76-3.46,3.11-5.58c0.38-2.32-0.44-4.82-2.61-5.98
			c-2.57-1.37-5.15,0.04-7.07,1.8c-1.58,1.44-3.13,2.91-4.7,4.37c-1.7,1.58-3.48,3.68-2.73,6.19c0.88,2.92,4.37,3.77,6.83,2.28
			c1.1-0.67,1.98-1.69,2.88-2.6c0.84-0.85,1.69-1.71,2.53-2.56c1.03-1.04,1.98-2,1.94-3.58c-0.06-2.39-2.57-3.93-4.7-2.71
			c-1.34,0.77-1.92,2.7-1.06,4.03c0.87,1.35,2.6,1.88,4.03,1.06c0.03-0.02,0.06-0.04,0.1-0.06c-0.76,0.1-1.51,0.2-2.27,0.3
			c0.03,0.01,0.05,0.01,0.08,0.02c-0.59-0.45-1.17-0.9-1.76-1.36c-0.04-0.3-0.08-0.59-0.11-0.89c-0.23-0.47-0.2-0.9,0.08-1.29
			c0.39-0.8,0.07-0.27-0.15-0.05c-0.23,0.23-0.46,0.47-0.69,0.7c-0.58,0.58-1.15,1.16-1.73,1.75c-0.5,0.5-1,1.01-1.5,1.51
			c-0.18,0.18-0.41,0.36-0.56,0.56c-0.25,0.32,0.36-0.18,0.01,0.01c-0.15,0.08-0.45,0.14-0.19,0.13c0.43-0.02,0.69-0.18,1.11,0.1
			c0.57,0.38,0.95,1.12,0.82,1.81c-0.01,0.07-0.25,0.42-0.06,0.16c0.05-0.06,0.33-0.51,0.12-0.23c-0.19,0.26,0.06-0.06,0.09-0.1
			c0.12-0.12,0.23-0.24,0.35-0.35c1.08-1.04,2.19-2.04,3.29-3.06c0.51-0.47,1.02-0.95,1.53-1.42c0.26-0.24,0.52-0.49,0.79-0.73
			c0.1-0.09,0.21-0.18,0.32-0.27c0.31-0.26-0.29,0.11,0.08-0.04c0.07-0.03,0.58-0.3,0.25-0.16c-0.29,0.12,0.1-0.02,0.14-0.02
			c-0.33,0.03-0.57,0.08-0.88-0.1c-0.47-0.28-0.29-0.24-0.13-0.07c-0.01-0.01-0.35-0.45-0.17-0.17c0.17,0.27-0.08-0.2-0.09-0.22
			c0.2,0.52-0.02-0.4,0.03-0.05c0.01,0.11,0,0.21,0,0.32c0-0.1,0.14-0.47,0.01-0.17c-0.03,0.06-0.2,0.62-0.08,0.3
			c0.11-0.28-0.07,0.13-0.08,0.15c-0.33,0.58-0.7,1.13-1.09,1.67c-0.84,1.18-1.7,2.34-2.58,3.49c-0.4,0.52-0.6,0.78-1.16,1.48
			c-0.48,0.61-0.97,1.21-1.46,1.81c-1.05,1.28-2.12,2.53-3.22,3.77c1.54,0.2,3.09,0.4,4.63,0.6c-3.61-5.09-7.22-10.18-10.83-15.26
			c-1.11,1.44-2.22,2.89-3.33,4.33c0.17,0.04,0.33,0.1,0.49,0.15c-0.26-0.07-0.25-0.13,0,0.01c0.34,0.19,0.68,0.38,1.01,0.59
			c0.77,0.49,1.51,0.92,2.37,1.27c1.75,0.71,3.88,0.75,5.5-0.32c1.42-0.94,1.77-2.52,1.06-4.03c-1.72-3.66-5.89-5.35-9.73-4.67
			c-1.94,0.34-2.61,2.81-1.76,4.33c1.29,2.32,3.53,3.86,6.01,4.67c2.56,0.84,5.34,0.72,7.98,0.52c1.53-0.12,3.02-1.27,2.95-2.95
			C51.54,49.41,50.31,47.83,48.66,47.96L48.66,47.96z"/>
	</g>
</g>
</svg>
