<svg xmlns="http://www.w3.org/2000/svg" viewBox="0 0 112 135"><defs><style>.cls-1{fill:#edd2d2;}.cls-2{font-size:22px;fill:#314150;font-family:Ubuntu-Bold, Ubuntu;font-weight:700;}.cls-3{letter-spacing:-0.02em;}.cls-4{letter-spacing:-0.01em;}.cls-5{fill:#fa6784;}.cls-6{opacity:0.48;}.cls-7,.cls-8{fill:none;stroke:#fff;stroke-miterlimit:10;}.cls-7{stroke-width:3px;}.cls-8{stroke-width:2px;}.cls-9{fill:#a5c66f;}</style></defs><g id="Suscrip"><rect class="cls-1" x="-1107.69" y="-324.08" width="1453" height="1725"/><text class="cls-2" transform="translate(6.1 153.2)">D<tspan class="cls-3" x="16.21" y="0">i</tspan><tspan class="cls-4" x="22.22" y="0">v</tspan><tspan x="34.01" y="0">ersión</tspan></text><path class="cls-5" d="M36.54,71.52c4.66,0,4.67-7.25,0-7.25s-4.67,7.25,0,7.25Z"/><path class="cls-5" d="M49.83,71.52c4.66,0,4.67-7.25,0-7.25s-4.67,7.25,0,7.25Z"/><path class="cls-5" d="M63.12,71.52c4.67,0,4.67-7.25,0-7.25s-4.67,7.25,0,7.25Z"/><g class="cls-6"><path class="cls-5" d="M63.12,83.61c4.67,0,4.67-7.25,0-7.25s-4.67,7.25,0,7.25Z"/></g><circle class="cls-7" cx="56.56" cy="60.67" r="41.25"/><ellipse class="cls-8" cx="43.31" cy="55.42" rx="8.5" ry="8"/><ellipse class="cls-8" cx="69.31" cy="55.42" rx="8.5" ry="8"/><circle class="cls-9" cx="57.31" cy="72.92" r="13"/><rect class="cls-1" x="27.31" y="54.92" width="56" height="17"/></g></svg>