<?xml version="1.0" encoding="utf-8"?>
<!-- Generator: Adobe Illustrator 24.2.3, SVG Export Plug-In . SVG Version: 6.00 Build 0)  -->
<svg version="1.1" id="Capa_1" xmlns="http://www.w3.org/2000/svg" xmlns:xlink="http://www.w3.org/1999/xlink" x="0px" y="0px"
	 viewBox="0 0 132 132" style="enable-background:new 0 0 132 132;" xml:space="preserve">
<style type="text/css">
	.st0{fill:#EDD2D2;}
	.st1{fill:none;stroke:#FFFFFF;stroke-width:3;stroke-miterlimit:10;}
	.st2{fill:#FFFFFF;}
	.st3{fill:#77B2C6;}
	.st4{fill:#A5C66F;}
	.st5{opacity:0.45;fill:#F4502A;enable-background:new    ;}
	.st6{fill:#FFFFFF;stroke:#FFFFFF;stroke-width:0.5;stroke-miterlimit:10;}
	.st7{fill:none;stroke:#FFFFFF;stroke-width:2;stroke-miterlimit:10;}
	.st8{fill:#F7E88F;}
</style>
<g id="Pasos">
	<rect class="st0" width="132" height="132"/>
	<path class="st1" d="M104,27v73.4c0,2.5-2,4.5-4.5,4.5H21.9c-2.5,0-4.5-2-4.5-4.5V27c0-2.5,2-4.5,4.5-4.5h77.6
		C102,22.4,104,24.5,104,27z"/>
	<path class="st2" d="M105.4,23.9c1.4-3.6,4.5-6.3,7.1-9c3.4-3.5,6.8-7,10.2-10.5c1.3-1.4-0.8-3.5-2.1-2.1c-3.5,3.7-7,7.3-10.6,11
		c-2.9,3-5.9,5.9-7.4,9.9C101.8,24.9,104.7,25.7,105.4,23.9L105.4,23.9z"/>
	<path class="st2" d="M20.2,21.8c-3.5-2.1-5.8-5.6-8.1-8.8C9,8.9,5.9,4.8,2.8,0.6C2.3-0.1,1.4-0.3,0.7,0.1s-1,1.3-0.5,2
		C3.4,6.4,6.7,10.7,9.9,15c2.6,3.5,5,7.1,8.8,9.4c0.7,0.4,1.6,0.1,2-0.6C21.1,23.1,20.9,22.2,20.2,21.8z"/>
	<path class="st3" d="M27.2,47.5h11.5c3.9,0,7.2,3.2,7.2,7.2v38.7c0,3.9-3.2,7.2-7.2,7.2H27.2c-3.9,0-7.1-3.2-7.1-7.2V54.6
		C20,50.7,23.3,47.5,27.2,47.5z"/>
	<path class="st4" d="M47.4,47.5h11.5c3.9,0,7.2,3.2,7.2,7.2v38.7c0,3.9-3.2,7.2-7.2,7.2H47.4c-3.9,0-7.2-3.2-7.2-7.2V54.6
		C40.2,50.7,43.4,47.5,47.4,47.5z"/>
	<path class="st5" d="M36.2,47.5h11.5c3.9,0,7.2,3.2,7.2,7.2v38.7c0,3.9-3.2,7.2-7.2,7.2H36.2c-3.9,0-7.1-3.2-7.1-7.2V54.6
		C29,50.7,32.2,47.5,36.2,47.5z"/>
	<path class="st3" d="M77.2,59.5h8.7c3.9,0,7.2,3.2,7.2,7.1v26.7c0,3.9-3.2,7.2-7.2,7.2h-8.7c-3.9,0-7.2-3.2-7.2-7.2V66.6
		C70.1,62.7,73.3,59.5,77.2,59.5z"/>
	<path class="st6" d="M40.3,100.8c2.6-3.3,4.9-6.7,6.9-10.3c1-1.8,2-3.6,3-5.4s1.9-3.4,2.7-5.2c0.8-1.6,1.3-3.4,1.5-5.2
		c0.1-1.8,0-3.6-0.3-5.4s-0.3-3.5-0.2-5.3c0.1-0.9,0.4-1.8,0.9-2.5c0.7-0.8,1.5-1.3,2.5-1.6c3.1-1.1,6.6-0.3,8.8,2.2
		c1,1.3,1.6,2.9,1.6,4.5c-0.1,1.7-0.8,3.3-2,4.6c-2.6,3-6.6,4.5-9.4,7.3c-2.5,2.6-4.5,5.7-5.8,9.1c-1.5,3.4-2.5,7-3.7,10.5
		c-0.6,1.7-1.3,3.6-2.9,4.6c-1.2,0.7-2.9,0.8-3.7-0.5c-0.3-0.5-0.4-1.1-0.1-1.7c0.4-0.8-0.9-1.2-1.2-0.5c-0.6,1.4-0.1,3,1.2,3.9
		c1.4,0.9,3.2,0.8,4.6-0.2c1.7-1.1,2.6-3,3.2-4.8s1.3-3.8,1.9-5.7c1.1-3.8,2.8-7.4,4.9-10.8c1.1-1.6,2.5-3.1,4-4.3
		c1.8-1.4,3.8-2.5,5.6-3.9c2.9-2.2,5.4-5.5,4.6-9.4c-0.8-3.5-3.7-6.2-7.2-6.7c-1.8-0.3-3.6,0-5.2,0.7c-1.9,0.7-3.3,2.4-3.7,4.4
		c-0.8,3.8,0.7,7.7,0.3,11.5c-0.2,1.9-0.8,3.8-1.8,5.6c-0.9,1.9-2,3.8-3,5.7c-2.1,4-4.4,7.8-7,11.5c-0.7,0.9-1.3,1.8-2,2.7
		C38.6,100.7,39.7,101.4,40.3,100.8L40.3,100.8z"/>
	<path class="st7" d="M73.2,79.9h23.3c2,0,3.6,1.6,3.6,3.6v13.3c0,2-1.6,3.6-3.6,3.6H73.2c-2,0-3.6-1.6-3.6-3.6V83.5
		C69.6,81.6,71.2,79.9,73.2,79.9z"/>
	<path class="st8" d="M75.1,87.4c0.8,0,1.5-0.7,1.5-1.5s-0.7-1.5-1.5-1.5s-1.5,0.7-1.5,1.5S74.2,87.4,75.1,87.4z"/>
	<path class="st8" d="M81.8,87.4c0.8,0,1.5-0.7,1.5-1.5s-0.7-1.5-1.5-1.5s-1.5,0.7-1.5,1.5S80.9,87.4,81.8,87.4z"/>
	<path class="st8" d="M88.5,87.4c0.8,0,1.5-0.7,1.5-1.5s-0.7-1.5-1.5-1.5S87,85.1,87,85.9S87.7,87.4,88.5,87.4z"/>
	<path class="st8" d="M95.2,87.4c0.8,0,1.5-0.7,1.5-1.5s-0.7-1.5-1.5-1.5s-1.5,0.7-1.5,1.5S94.4,87.4,95.2,87.4z"/>
	<path class="st8" d="M75.1,92.4c0.8,0,1.5-0.7,1.5-1.5s-0.7-1.5-1.5-1.5s-1.5,0.7-1.5,1.5S74.2,92.4,75.1,92.4z"/>
	<path class="st8" d="M81.8,92.4c0.8,0,1.5-0.7,1.5-1.5s-0.7-1.5-1.5-1.5s-1.5,0.7-1.5,1.5S80.9,92.4,81.8,92.4z"/>
	<path class="st8" d="M88.5,92.4c0.8,0,1.5-0.7,1.5-1.5s-0.7-1.5-1.5-1.5S87,90.1,87,90.9S87.7,92.4,88.5,92.4z"/>
	<path class="st8" d="M95.2,92.4c0.8,0,1.5-0.7,1.5-1.5s-0.7-1.5-1.5-1.5s-1.5,0.7-1.5,1.5S94.4,92.4,95.2,92.4z"/>
	<path class="st8" d="M75.1,97.4c0.8,0,1.5-0.7,1.5-1.5s-0.7-1.5-1.5-1.5s-1.5,0.7-1.5,1.5S74.2,97.4,75.1,97.4z"/>
	<path class="st8" d="M81.8,97.4c0.8,0,1.5-0.7,1.5-1.5s-0.7-1.5-1.5-1.5s-1.5,0.7-1.5,1.5S80.9,97.4,81.8,97.4z"/>
	<path class="st8" d="M88.5,97.4c0.8,0,1.5-0.7,1.5-1.5s-0.7-1.5-1.5-1.5S87,95.1,87,95.9S87.7,97.4,88.5,97.4z"/>
	<path class="st8" d="M95.2,97.4c0.8,0,1.5-0.7,1.5-1.5s-0.7-1.5-1.5-1.5s-1.5,0.7-1.5,1.5S94.4,97.4,95.2,97.4z"/>
</g>
</svg>
