<?xml version="1.0" encoding="utf-8"?>
<!-- Generator: Adobe Illustrator 24.2.3, SVG Export Plug-In . SVG Version: 6.00 Build 0)  -->
<svg version="1.1" id="Capa_1" xmlns="http://www.w3.org/2000/svg" xmlns:xlink="http://www.w3.org/1999/xlink" x="0px" y="0px"
	 viewBox="0 0 132 132" style="enable-background:new 0 0 132 132;" xml:space="preserve">
<style type="text/css">
	.st0{fill:#EDD2D2;}
	.st1{fill:#77B2C6;}
	.st2{opacity:0.5;fill:#7AC1CC;enable-background:new    ;}
	.st3{fill:#FFFFFF;}
</style>
<g id="Pasos">
	<rect class="st0" width="132" height="132"/>
	<path class="st1" d="M49.9,8.7h32.8c5.1,0,9.2,4.1,9.2,9.2v78.4c0,5.1-4.1,9.2-9.2,9.2H49.9c-5.1,0-9.2-4.1-9.2-9.2V17.9
		C40.8,12.8,44.9,8.7,49.9,8.7z"/>
	<path class="st2" d="M15.1,15.4h25.3c5.1,0,9.2,4.1,9.2,9.2v64c0,5.1-4.1,9.2-9.2,9.2H15.1c-5.1,0-9.2-4.1-9.2-9.2v-64
		C5.9,19.6,10,15.4,15.1,15.4z"/>
	<path class="st2" d="M90.9,15.4h25.3c5.1,0,9.2,4.1,9.2,9.2v64c0,5.1-4.1,9.2-9.2,9.2H90.9c-5.1,0-9.2-4.1-9.2-9.2v-64
		C81.8,19.6,85.9,15.4,90.9,15.4z"/>
	<path class="st3" d="M55.5,89.5c4.9-6.2,8.6-13.3,10.8-20.9L64.2,68c-0.9,4.3,0.2,8.8,3,12.3c2.7,3.6,6.5,6.2,10.2,8.7
		c1.2,0.8,2.3-1.1,1.1-1.9c-6-4-14.2-10-12.2-18.4c0.1-0.6-0.3-1.2-0.9-1.3c-0.5-0.1-1.1,0.2-1.3,0.7c-2.1,7.2-5.6,14-10.3,19.9
		C53,89.1,54.6,90.7,55.5,89.5z"/>
	<path class="st3" d="M57,89.4c1.9-2,4.6-3.2,6.5-5.3s2.9-5,1.6-7.6c-0.7-1.3-2.6-0.2-2,1.1c1,1.9-0.5,4.2-1.8,5.5
		c-1.8,1.7-4.1,2.8-5.9,4.7C54.4,88.9,56,90.5,57,89.4z"/>
	<path class="st3" d="M78.8,87.6C74,82,70.1,75.7,67.3,68.9c-0.5-1.3-2.7-0.7-2.2,0.6c3,7.2,7.1,13.8,12.2,19.7
		C78.2,90.3,79.8,88.7,78.8,87.6z"/>
	<path class="st3" d="M54.3,90.7c0.6-0.1,1.1-0.6,1-1.2c-0.1-0.5-0.5-1-1-1c-0.6,0.1-1.1,0.6-1,1.2C53.3,90.2,53.7,90.6,54.3,90.7z"
		/>
	<path class="st3" d="M54.8,90.5c2.6-1.4,4.6-3.4,6-6c0.3-0.6,0-1.2-0.5-1.5c-0.5-0.2-1.1-0.1-1.4,0.4c-0.3,0.6-0.6,1.1-1,1.7
		c0,0-0.2,0.3,0,0.1l-0.1,0.2l-0.3,0.4c-0.2,0.2-0.4,0.5-0.7,0.7S56.3,86.8,56,87l-0.3,0.3c0,0-0.3,0.2-0.1,0l-0.2,0.2
		c-0.5,0.4-1.1,0.7-1.7,1c-0.5,0.3-0.7,1-0.4,1.5S54.3,90.7,54.8,90.5L54.8,90.5z"/>
	<path class="st3" d="M54.8,90.8c2.8-1.1,5.4-2.5,7.7-4.3c2.2-1.7,4.5-3.8,4.8-6.7c0.1-0.6-0.4-1.2-1-1.2c-0.6-0.1-1.2,0.4-1.2,1
		c0,0.1,0,0.1,0,0.2c-0.2,1.1-0.7,2-1.5,2.8c-0.8,0.9-1.8,1.7-2.8,2.5c-2,1.5-4.3,2.8-6.6,3.7c-0.6,0.2-0.9,0.8-0.8,1.4
		C53.6,90.7,54.2,91,54.8,90.8L54.8,90.8z"/>
	<path class="st3" d="M64.9,79.6c-1.3-0.3-2.6-0.3-3.9,0c-0.6,0.2-0.9,0.8-0.8,1.4l0,0c0.2,0.6,0.8,0.9,1.4,0.8
		c0.3-0.1,0.5-0.1,0.8-0.2h-0.3c0.6-0.1,1.2-0.1,1.8,0h-0.3c0.2,0,0.5,0.1,0.7,0.1c0.6,0.2,1.2-0.1,1.5-0.7c0.2-0.6-0.1-1.2-0.7-1.5
		C65,79.6,64.9,79.6,64.9,79.6L64.9,79.6z"/>
	<path class="st3" d="M64.2,68.3c-0.1,0.6-0.1,1.2-0.1,1.8c0.1,0.6,0.2,1.2,0.4,1.7c0.4,1,0.9,2,1.5,3c0.4,0.7,1.3,1,2,0.6
		s1-1.3,0.6-2c0,0,0-0.1-0.1-0.1c-0.3-0.6-0.7-1.2-1-1.9v-0.1l0,0v-0.1c-0.1-0.2-0.1-0.4-0.2-0.6c-0.1-0.3-0.2-0.7-0.2-1V70
		c-0.1-0.4-0.1-0.9,0-1.3L67,69.1V69c0.1-0.4,0-0.8-0.1-1.2c-0.2-0.3-0.5-0.6-0.9-0.7s-0.8-0.1-1.2,0.2
		C64.6,67.6,64.4,67.9,64.2,68.3L64.2,68.3z"/>
	<path class="st3" d="M78.8,87.3c-2.1-1.5-4.3-3-6.2-4.6c-1.8-1.3-3.1-3.2-3.9-5.3c-0.2-0.8-1-1.3-1.8-1.1c-0.8,0.2-1.3,1-1.1,1.8
		c0.9,2.6,2.4,4.8,4.5,6.5c2.2,1.9,4.7,3.5,7,5.2c0.7,0.4,1.6,0.2,2.1-0.5C79.7,88.7,79.5,87.8,78.8,87.3
		C78.7,87.4,78.7,87.4,78.8,87.3z"/>
	<path class="st3" d="M61.1,85.9c0.3-0.8,0.7-1.5,1.1-2.2c0.5-0.8,1-1.5,1.4-2.3s0.7-1.7,0.9-2.6c0.1-0.2,0.1-0.5,0.2-0.7
		c-0.1,0.2,0.2-0.2,0.2-0.2l0.2-0.2c0,0-0.1,0.1,0.1,0c-0.1,0-0.1,0-0.2,0l-1.5-1.5c-0.1,1-0.1,1.9,0.2,2.8c0.6,0.9,1.8,1.3,2.8,0.9
		c1.6-0.5,2.5-2.3,2-3.9c-0.1-0.2-0.2-0.4-0.3-0.6c-0.4-0.7-1.4-0.9-2.1-0.5c-0.4,0.3-0.7,0.7-0.7,1.3c0.1,1.5,1.2,2.5,2,3.6L70,83
		c0.6,0.6,1.5,0.6,2.1,0s0.6-1.5,0-2.1L70,78l-1-1.2c-0.1-0.1-0.3-0.4-0.4-0.5s-0.2-0.4-0.2-0.2l-2.8,0.8c0.1,0.2,0.1,0.2,0,0.1
		s0-0.1,0,0.1c0.1-0.2,0.1,0,0,0c0.2-0.1-0.2,0-0.1,0h0.1c-0.3,0-0.2,0,0.1,0l0.5,0.5c0.1,0.2,0.1,0.5,0.1,0.1c0-0.2,0-0.4,0-0.6v-1
		c0-0.8-0.7-1.5-1.5-1.5c-1.2,0.1-2.2,0.8-2.8,1.8c-0.4,1-0.8,2-1,3c-0.4,0.9-0.9,1.8-1.5,2.6c-0.6,1-1.1,2-1.5,3.1
		c-0.2,0.8,0.2,1.6,1,1.8C60,87.2,60.8,86.7,61.1,85.9L61.1,85.9z"/>
	<path class="st3" d="M78.1,87.5c-4.3-1.2-8-3.8-10.6-7.5c-0.4-0.7-1.3-0.9-2.1-0.5c-0.7,0.4-0.9,1.4-0.5,2.1
		c2.9,4.3,7.3,7.5,12.4,8.8c0.8,0.2,1.6-0.3,1.8-1.1C79.3,88.5,78.9,87.7,78.1,87.5L78.1,87.5z"/>
</g>
</svg>
