<?xml version="1.0" encoding="utf-8"?>
<!-- Generator: Adobe Illustrator 24.2.3, SVG Export Plug-In . SVG Version: 6.00 Build 0)  -->
<svg version="1.1" id="Capa_1" xmlns="http://www.w3.org/2000/svg" xmlns:xlink="http://www.w3.org/1999/xlink" x="0px" y="0px"
	 viewBox="0 0 132 132" style="enable-background:new 0 0 132 132;" xml:space="preserve">
<style type="text/css">
	.st0{fill:#EDD2D2;}
	.st1{fill:none;stroke:#FFFFFF;stroke-width:3;stroke-miterlimit:10;}
	.st2{fill:#77B2C6;}
</style>
<g id="Pasos">
	<rect class="st0" width="132" height="132"/>
	<path class="st1" d="M96.9,8.5v91.9c0,2.5-2,4.5-4.5,4.5H35.9c-2.5,0-4.5-2-4.5-4.5V8.5c0-2.5,2-4.5,4.5-4.5h56.5
		C94.9,3.9,96.9,5.9,96.9,8.5z"/>
	<path class="st2" d="M47.4,32.5c10.4,0.2,20.8,0.1,31.2-0.1c1.9,0,1.9-3,0-3c-10.4,0.3-20.8,0.3-31.2,0.1
		C45.5,29.5,45.5,32.5,47.4,32.5z"/>
	<path class="st2" d="M47.4,56.5c10.4,0.2,20.8,0.1,31.2-0.1c1.9,0,1.9-3,0-3c-10.4,0.3-20.8,0.3-31.2,0.1
		C45.5,53.5,45.5,56.5,47.4,56.5z"/>
	<path class="st2" d="M47.4,78.5c10.4,0.2,20.8,0.1,31.2-0.1c1.9,0,1.9-3,0-3c-10.4,0.3-20.8,0.3-31.2,0.1
		C45.5,75.5,45.5,78.5,47.4,78.5z"/>
	<rect x="89.7" y="28.1" transform="matrix(0.7409 -0.6716 0.6716 0.7409 3.1793 73.6915)" class="st0" width="14.8" height="9.2"/>
	
		<rect x="89.7" y="52.1" transform="matrix(0.7393 -0.6733 0.6733 0.7393 -12.8834 80.1638)" class="st0" width="14.8" height="9.2"/>
	
		<rect x="89.7" y="74.1" transform="matrix(0.7071 -0.7071 0.7071 0.7071 -27.2297 91.7215)" class="st0" width="14.8" height="9.2"/>
	<path class="st2" d="M91.2,40.4L91.2,40.4c-0.7,0-1.2-0.3-1.5-0.8c-1.6-2.2-3.4-4.2-5.5-6c-0.8-0.6-0.9-1.8-0.2-2.5
		c0.6-0.8,1.8-0.9,2.5-0.2c1.7,1.5,3.4,3.1,4.8,4.9c4.1-4.5,8.8-8.5,13.9-11.8c0.8-0.6,1.9-0.5,2.5,0.3s0.5,1.9-0.3,2.5
		c-0.1,0.1-0.2,0.1-0.3,0.2c-9.7,6.2-14.4,12.6-14.5,12.6C92.3,40.1,91.8,40.4,91.2,40.4z"/>
	<path class="st2" d="M91.2,64.4L91.2,64.4c-0.7,0-1.2-0.3-1.5-0.8c-1.6-2.2-3.4-4.2-5.5-6c-0.8-0.6-0.9-1.8-0.2-2.5
		c0.6-0.8,1.8-0.9,2.5-0.2l0,0c1.7,1.5,3.4,3.1,4.8,4.9c4.1-4.5,8.8-8.5,13.9-11.8c0.9-0.5,2-0.1,2.4,0.7s0.2,1.7-0.5,2.3
		c-9.7,6.2-14.4,12.6-14.5,12.6C92.3,64.1,91.8,64.4,91.2,64.4z"/>
	<path class="st2" d="M91.2,86.4L91.2,86.4c-0.7,0-1.2-0.3-1.5-0.8c-1.6-2.2-3.4-4.2-5.5-6c-0.8-0.6-0.9-1.8-0.2-2.5
		c0.7-0.7,1.8-0.9,2.5-0.2c1.7,1.5,3.4,3.1,4.8,4.9c4.1-4.5,8.8-8.5,13.9-11.8c0.8-0.6,1.9-0.5,2.5,0.3s0.5,1.9-0.3,2.5
		c-0.1,0.1-0.2,0.1-0.3,0.2c-9.7,6.2-14.4,12.6-14.5,12.6C92.3,86.1,91.8,86.4,91.2,86.4z"/>
</g>
</svg>
