<?xml version="1.0" encoding="utf-8"?>
<!-- Generator: Adobe Illustrator 24.2.3, SVG Export Plug-In . SVG Version: 6.00 Build 0)  -->
<svg version="1.1" id="Capa_1" xmlns="http://www.w3.org/2000/svg" xmlns:xlink="http://www.w3.org/1999/xlink" x="0px" y="0px"
	 viewBox="0 0 132 132" style="enable-background:new 0 0 132 132;" xml:space="preserve">
<style type="text/css">
	.st0{fill:#EDD2D2;}
	.st1{fill:#A5C66F;}
	.st2{fill:#C9D6B4;}
	.st3{fill:none;stroke:#FFFFFF;stroke-width:2.5;stroke-miterlimit:10;}
	.st4{fill:#FFFFFF;}
	.st5{fill:#FFE422;}
	.st6{fill:#F4502A;}
</style>
<g id="Pasos">
	<rect class="st0" width="132" height="132"/>
	<path class="st1" d="M81.9,6.4h27.8c5.1,0,9.2,4.1,9.2,9.2v80.6c0,5.1-4.1,9.2-9.2,9.2H81.9c-5.1,0-9.2-4.1-9.2-9.2V15.6
		C72.8,10.5,76.9,6.4,81.9,6.4z"/>
	<circle class="st2" cx="96.3" cy="58.2" r="14.1"/>
	<path class="st3" d="M22.6,62.3h52.9c2.5,0,4.5,2,4.5,4.5v27.7c0,2.5-2,4.5-4.5,4.5H22.6c-2.5,0-4.5-2-4.5-4.5V66.8
		C18.1,64.3,20.1,62.3,22.6,62.3z"/>
	<path class="st4" d="M78.3,72.4H18.8c-0.8,0-1.5,0.7-1.5,1.5s0.7,1.5,1.5,1.5h59.5c0.8,0,1.5-0.7,1.5-1.5S79.1,72.4,78.3,72.4z"/>
	<circle class="st5" cx="70.4" cy="90.4" r="5"/>
	<circle class="st6" cx="64.1" cy="90.4" r="5"/>
</g>
</svg>
