<svg id="Capa_1" data-name="Capa 1" xmlns="http://www.w3.org/2000/svg" viewBox="0 0 88 54"><defs><style>.cls-1{fill:#77b2c6;}.cls-2,.cls-3{fill:#fff;}.cls-3{stroke:#fff;stroke-miterlimit:10;}</style></defs><rect class="cls-1" x="26.7" y="0.57" width="29.98" height="52.86" rx="6.55"/><path class="cls-2" d="M41.19,49.39c2.89,0,2.9-4.5,0-4.5s-2.9,4.5,0,4.5Z"/><path class="cls-2" d="M32,21.93a15.21,15.21,0,0,1,18.73,0,1.55,1.55,0,0,0,2.11-.55,1.57,1.57,0,0,0-.55-2.11,18.12,18.12,0,0,0-21.85,0,1.6,1.6,0,0,0-.55,2.11,1.56,1.56,0,0,0,2.11.55Z"/><path class="cls-3" d="M36.8,26.07a7.15,7.15,0,0,1,8.81,0,.74.74,0,0,0,1-.26.75.75,0,0,0-.26-1,8.54,8.54,0,0,0-10.29,0,.75.75,0,0,0-.26,1,.74.74,0,0,0,1,.26Z"/></svg>