<svg id="Capa_1" data-name="Capa 1" xmlns="http://www.w3.org/2000/svg" viewBox="0 0 88 54"><defs><style>.cls-1{fill:#d5ddb8;}.cls-2{fill:#fff;stroke:#fff;stroke-miterlimit:10;stroke-width:2px;}.cls-3{font-size:27.65px;fill:#f4502a;font-family:Ubuntu-Medium, Ubuntu;font-weight:500;}</style></defs><rect class="cls-1" x="6.63" y="4.46" width="78.31" height="45.83" rx="7.7"/><path class="cls-2" d="M42.87,12.22H18.29a1.67,1.67,0,0,0,0,3.34H42.87a1.67,1.67,0,0,0,0-3.34Z"/><path class="cls-2" d="M28.78,26.32H4.5a1.67,1.67,0,0,0,0,3.34H28.78a1.67,1.67,0,0,0,0-3.34Z"/><path class="cls-2" d="M28.78,41.74l-13.53-.2-3.85,0a1.67,1.67,0,0,0-1.64,1.67,1.69,1.69,0,0,0,1.64,1.67L24.92,45l3.86.06a1.66,1.66,0,0,0,1.63-1.67,1.69,1.69,0,0,0-1.63-1.67Z"/><text class="cls-3" transform="translate(53.24 37.02)">$</text></svg>