<?xml version="1.0" encoding="utf-8"?>
<!-- Generator: Adobe Illustrator 24.2.3, SVG Export Plug-In . SVG Version: 6.00 Build 0)  -->
<svg version="1.1" id="Capa_1" xmlns="http://www.w3.org/2000/svg" xmlns:xlink="http://www.w3.org/1999/xlink" x="0px" y="0px"
	 viewBox="0 0 905.64 366.65" style="enable-background:new 0 0 905.64 366.65;" xml:space="preserve">
<style type="text/css">
	.st0{fill:#D45130;stroke:#D45130;stroke-miterlimit:10;}
</style>
<g>
	<g>
		<path class="st0" d="M184.03,295.6c-6.14,0.01-12.09-2.13-16.82-6.05L9.5,158.13c-11.18-9.29-12.71-25.88-3.42-37.06
			c9.29-11.18,25.88-12.71,37.06-3.42l140.89,117.76l140.89-113.55c11.27-9.15,27.82-7.43,36.97,3.83c0.03,0.04,0.06,0.07,0.09,0.11
			c9.66,10.84,8.69,27.46-2.15,37.11c-0.5,0.44-1.01,0.86-1.53,1.27L200.59,291.13C195.72,294.43,189.89,296,184.03,295.6z"/>
	</g>
</g>
</svg>
