<svg xmlns="http://www.w3.org/2000/svg" viewBox="0 0 163.83 150.6"><defs><style>.cls-1{fill:#314150;}.cls-2{fill:#f4502a;}</style></defs><g id="Suscrip"><path class="cls-1" d="M57.17,106.26H57a5.63,5.63,0,0,1-4.57-2.6c-6.24-9.79-17.18-18.92-17.29-19A5.64,5.64,0,0,1,42.32,76,119,119,0,0,1,57.47,91.42c6.91-7.81,21.28-22.3,43.71-36.71a5.64,5.64,0,1,1,6.1,9.48C76.84,83.76,61.86,103.78,61.71,104A5.63,5.63,0,0,1,57.17,106.26Z"/><path class="cls-2" d="M12.51,76.37C11.76,55.14,17.8,31.5,41.17,26c11.34-2.68,24-2.43,35.43-.34,10.71,2,22,5.42,30.67,12.31C123,50.51,128.35,75.18,121.42,93.71,114.08,113.32,90.52,124,71,126.45c-11.55,1.45-23.56-.34-33.51-6.58-10.47-6.56-15.77-17.82-20.84-28.62-3.15-6.7-13.08-.86-9.95,5.81,5.42,11.53,11.33,22.86,21.81,30.59,10.13,7.47,22.92,10.92,35.43,10.78,24-.27,52.81-12.11,65-33.81,11.92-21.2,7.87-50.43-7.53-68.82C104.26,15.26,71.53,10.41,46.4,13.48c-14.7,1.8-27.15,7.82-35.59,20.29S.48,61.71,1,76.37c.26,7.39,11.78,7.43,11.52,0Z"/></g></svg>